<?xml version="1.0" encoding="utf-8"?>
<!-- Generator: Adobe Illustrator 17.0.0, SVG Export Plug-In . SVG Version: 6.00 Build 0)  -->
<!DOCTYPE svg PUBLIC "-//W3C//DTD SVG 1.1//EN" "http://www.w3.org/Graphics/SVG/1.1/DTD/svg11.dtd">
<svg version="1.1" id="Layer_1" xmlns="http://www.w3.org/2000/svg" xmlns:xlink="http://www.w3.org/1999/xlink" x="0px" y="0px"
	 width="15.877px" height="49.189px" viewBox="0 0 15.877 49.189" enable-background="new 0 0 15.877 49.189" xml:space="preserve">
<path fill="#55AF7F" d="M6.338,0.285c4.056-1.654,2.599,4.334,2.684,6.343c0.055,1.307,0.161,2.548-0.015,3.773
	c-0.007,0.058-0.024,0.471-0.024,0.531c0.306,9.34-0.122,20.5-0.309,29.751c0.773-1.16,0.549-2.203,1.581-3.169
	c0.772-2.372,1.537-4.746,4.018-6.459c0.607,0.137,1.33-0.027,1.603,0.978c-0.102,0.051-0.028,0.169-0.013,0.265
	c-1.573,1.737-2.74,4.094-3.199,5.964c-0.235,0.067,0.161,0.303,0.253,0.278c0.085,0.276-0.457,0.776-0.145,0.844
	c-0.245,0.374-1.401,0.952-0.893,2.085c-1.486,1.19-1.932,5.745-3.416,7.231c-0.583,0.589-2.029,0.721-2.604-0.014
	c-0.072-0.492,1.08-1.957,0.797-2.302c-0.795-0.962-1.492-3.51-2.48-3.834c-0.056-0.322,0.129-0.55,0.145-0.844
	C3.152,39.128,1.529,35.08,0,32.841c3.667-3.056,4.983,5.571,6.384,7.948c0.468-1.312,0.395-3.488,0.232-5.039
	c0.631,0.24-0.309-0.988,0.435-1.361c-0.569-0.208-0.166-1.203-0.144-1.495c0.044-0.561-0.274-1.496,0.29-1.687
	c-0.412-0.537,0.053-1.344-0.313-1.291c-0.122-0.579,0.568,0.122,0.447-0.457c-0.245-0.26,0.049,0.39-0.325,0.144
	c-0.129-0.717-0.099-0.529,0.254-0.892c-0.1,0.044-0.513-0.401-0.337-0.759c0.026-0.05,0.325-0.096,0.325-0.144
	c0.005-0.197-0.315-0.175-0.301-0.386c0.004-0.077,0.238,0.133,0.205,0.169c0.215-0.224-0.253-0.461-0.277-0.917
	c-0.01-0.266,0.286-0.625,0.314-1.048c0.018-0.289-0.268-0.677-0.276-0.916c-0.02-0.484,0.281-0.818,0.254-0.892
	c-0.028-0.075-0.443-0.475,0.024-0.531c-0.29-0.607,0.352-1.573-0.107-2.29c-0.062-0.443,0.145-0.784,0.266-1.157
	c-0.082-1.333-0.518-2.633-0.443-4.22c-0.008,0.188,0.348-0.728,0.362-0.94c0.037-0.66-0.261-1.394-0.275-2.086
	C6.942,9.478,7.021,6.19,6.686,3.118C6.588,2.226,6.579,1.266,6.338,0.285z"/>
</svg>
