<svg xml:space="preserve" enable-background="new 0 0 75.102 43.832" viewBox="0 0 75.102 43.832" height="43.832px"
		width="75.102px" y="0px" x="0px" xmlns:xlink="http://www.w3.org/1999/xlink" xmlns="http://www.w3.org/2000/svg" id="Layer_1" version="1.1">
	<path d="M63.221,4.68c1.261-1.199-7.249,0.011-8.654-0.211
		c-0.507-0.509-0.361-1.125-0.175-1.482c0.258-0.474,4.725-0.504,10.447-1.359c6.354-0.95,8.064-1.333,9.713-1.628
		c0.665,0.036,0.815,0.961-0.051,1.721c-6.223,5.462-12.307,14.241-12.803,14.343c-0.92-0.114-1.143-0.83-0.749-1.628
		c1.127-2.288,3.019-4.99,4.099-6.844c-11.436,4.484-24.18,10.315-34.797,15.901C19.617,29.088,11.257,34.815,0.688,43.832
		c-0.473-0.047-0.762,0.026-0.672-0.4c0.336-0.758,1.543-2.186,2.084-2.755c5.605-5.892,10.631-9.708,17.092-13.754
		c8.695-5.444,17.269-10.067,26.56-14.403C50.22,10.433,58.463,6.72,63.221,4.68z" fill="#47CB85" clip-rule="evenodd" fill-rule="evenodd"/>
</svg>