<svg version="1.1" id="Layer_1" xmlns="http://www.w3.org/2000/svg" xmlns:xlink="http://www.w3.org/1999/xlink" x="0px" y="0px"
	width="70.43px" height="57.94px" viewBox="0 0 70.43 57.94" enable-background="new 0 0 70.43 57.94" xml:space="preserve">

	<path fill="#47cb85" d="M0,0.012c3.15-0.251,3.97,3.449,6.51,4.51c2.54,1.189,5.21,2.129,7.62,3.619
		c-3.31,1.621-6.58-0.89-9.55-2.119c4.38,11.149,8.06,23.09,16.5,31.989c10.78,10.971,25.74,17.41,40.98,18.761
		c2.8,0.159,5.6,0.289,8.37,0.77c-8.271,0.53-16.85,1.02-24.76-1.94c-13.24-4.6-25.88-12.909-32.89-25.359
		c-3.84-6.69-6.71-13.91-8.93-21.28c0.09,2.92-0.12,5.85-0.53,8.75c-0.46-0.279-1.38-0.84-1.84-1.12C0.87,11.081,1.2,5.471,0,0.012
		L0,0.012z"/>

</svg>