<svg version="1.1" id="Layer_1" xmlns="http://www.w3.org/2000/svg" xmlns:xlink="http://www.w3.org/1999/xlink" x="0px" y="0px"
	width="86.744px" height="13.414px" viewBox="0 0 86.744 13.414" enable-background="new 0 0 86.744 13.414" xml:space="preserve">

	<path fill-rule="evenodd" clip-rule="evenodd" fill="#47cb85" d="M86.744,13.414C62.748,5.66,39.153,0.341,12.747,6.525
		c-2.05,0.6-3.67,1.396-3.479,1.672c0.232,0.338,4.013-0.225,4.346-0.27c1.084-0.148,3.041,1.056,1.111,1.551
		c-5.645,0.84-9.351,1.452-14.192,2.173C0.354,11.286,0.178,10.92,0,10.554C2.709,6.333,6.557,3.227,10.281,0
		c0.316,0.223,0.633,0.445,0.949,0.668c-0.816,1.395-1.634,2.789-2.66,4.541C35.949-1.697,61.77,2.328,86.744,13.414z"/>

</svg>