<svg version="1.1" id="Layer_1" xmlns="http://www.w3.org/2000/svg" xmlns:xlink="http://www.w3.org/1999/xlink" x="0px" y="0px"
	width="96.691px" height="80.673px" viewBox="0 0 96.691 80.673" enable-background="new 0 0 96.691 80.673" xml:space="preserve">

	<path fill-rule="evenodd" clip-rule="evenodd" fill="#47cb85" d="M90.656,13.037c-2.301,1.391-3.895,2.7-6.108,3.122
		c-3.688,0.703-1.636-0.821-1.091-1.271c0.885-0.73,2.073-1.053,3.458-2.08c3.482-2.584,5.083-5.262,6.638-8.978
		C93.93,2.928,94.629,0.08,95.9,0c0.566,0.399,1.23,1.356,0.399,4.549c-0.968,3.718-0.873,6.267-0.656,9.537
		c0.087,1.312,0.345,2.506,0.524,3.631c0.481,3.019-0.977,2.018-1.273,1.637c-0.674-0.86-0.738-3.124-1.92-3.999
		c-0.347-0.257-0.991,1.394-1.102,1.608c-4.198,8.218-8.226,13.33-14.468,19.912c-5.484,5.785-12.934,12.575-19.54,17.036
		c-4.896,3.307-9.967,6.391-15.141,9.244C29.76,70.308,16.082,75.847,2.066,80.571c-0.58,0.195-1.25,0.128-2.066-0.367
		c2.381-1.057,15.54-6.278,22.038-9.582c12.478-6.344,24.987-12.609,36.399-20.797c2.671-1.916,5.42-3.822,7.717-6.145
		c6.18-6.252,12.153-9.297,23.805-27.792C90.419,15.159,91.158,13.345,90.656,13.037z"/>

</svg>