<svg xml:space="preserve" enable-background="new 0 0 39.993 62.702" viewBox="0 0 39.993 62.702" height="62.702px"
	width="39.993px" y="0px" x="0px" xmlns:xlink="http://www.w3.org/1999/xlink" xmlns="http://www.w3.org/2000/svg" id="Layer_1" version="1.1">
	<path d="M28.46,8.135c-2.671,2.672-6.44,5.846-8.749,8.375
		C13.305,23.531,8.049,31.411,4.309,40.092C2.562,44.149,1.463,48.62,0.78,53.161c-0.407,2.71-0.79,5.381-0.78,8.104
		c0.002,0.487,0.443,1.321,0.805,1.396c1.225,0.253,1.061-0.729,1.178-1.555c0.707-4.971,1.261-9.972,2.971-14.747
		c2.849-7.957,8.13-18.773,13.512-25.388C22.562,15.938,30.371,9.115,30.724,8.88c-0.285,1.315-0.383,2.029-0.539,2.557
		c-0.48,1.625-0.781,2.36-1.185,4.006c-0.411,1.678,1.738,0.879,1.918,0.474c2.129-4.771,4.62-9.29,8.355-13.028
		c0.315-0.316,0.672-1.175,0.691-1.59c0.026-0.606,0.116-0.976-0.272-1.2s-1.613-0.023-1.975,0.178
		c-2.169,1.209-3.731,2.288-5.938,3.421c-2.187,1.123-4.501,1.994-6.723,3.054c-0.45,0.215-0.465,1.413,0.061,1.602
		C25.545,8.508,27.076,8.202,28.46,8.135z" fill="#47CB85" clip-rule="evenodd" fill-rule="evenodd"/>
</svg>