<?xml version="1.0" encoding="utf-8"?>
<!-- Generator: Adobe Illustrator 17.0.0, SVG Export Plug-In . SVG Version: 6.00 Build 0)  -->
<!DOCTYPE svg PUBLIC "-//W3C//DTD SVG 1.1//EN" "http://www.w3.org/Graphics/SVG/1.1/DTD/svg11.dtd">
<svg version="1.1" id="Layer_1" xmlns="http://www.w3.org/2000/svg" xmlns:xlink="http://www.w3.org/1999/xlink" x="0px" y="0px"
	 width="15.008px" height="87.114px" viewBox="31.409 -21.959 15.008 87.114" enable-background="new 31.409 -21.959 15.008 87.114"
	 xml:space="preserve">
<path fill="#47CB85" d="M40.757,52.67c0.469,1.676,3.385-6.41,4.239-7.547c0.687-0.21,1.163,0.208,1.391,0.539
	c0.298,0.45-1.768,4.411-3.692,9.867c-2.136,6.059-2.599,7.749-3.111,9.344c-0.343,0.571-1.231,0.27-1.497-0.851
	c-1.911-8.056-6.819-17.543-6.677-18.029c0.532-0.759,1.269-0.621,1.789,0.101c1.494,2.067,2.995,5.004,4.127,6.827
	c1.394-12.204,2.211-26.195,2.248-38.192c0.037-12.016-1.108-22.085-4.125-35.646c0.263-0.396,0.334-0.685,0.668-0.406
	c0.512,0.652,1.209,2.387,1.458,3.132c2.581,7.712,3.599,13.94,4.147,21.543c0.738,10.232,0.807,19.973,0.287,30.213
	C41.762,38.488,41.183,47.51,40.757,52.67z"/>
</svg>
