<?xml version="1.0" encoding="utf-8"?>
<!-- Generator: Adobe Illustrator 17.0.0, SVG Export Plug-In . SVG Version: 6.00 Build 0)  -->
<!DOCTYPE svg PUBLIC "-//W3C//DTD SVG 1.1//EN" "http://www.w3.org/Graphics/SVG/1.1/DTD/svg11.dtd">
<svg version="1.1" id="Layer_1" xmlns="http://www.w3.org/2000/svg" xmlns:xlink="http://www.w3.org/1999/xlink" x="0px" y="0px"
	 width="86.744px" height="13.414px" viewBox="0 0 86.744 13.414" enable-background="new 0 0 86.744 13.414" xml:space="preserve">
<path fill="#47CB85" d="M78.174,5.209c-1.026-1.752-1.844-3.146-2.66-4.541C75.83,0.445,76.147,0.223,76.463,0
	c3.724,3.227,7.572,6.333,10.281,10.554c-0.178,0.366-0.354,0.732-0.533,1.097c-4.841-0.721-8.547-1.333-14.192-2.173
	c-1.93-0.495,0.027-1.699,1.111-1.551c0.333,0.045,4.114,0.608,4.346,0.27c0.191-0.276-1.429-1.072-3.479-1.672
	C47.591,0.341,23.996,5.66,0,13.414C24.974,2.328,50.795-1.697,78.174,5.209z"/>
</svg>
